<?xml version="1.0" standalone="no"?>
<!DOCTYPE svg PUBLIC "-//W3C//DTD SVG 20010904//EN"
 "http://www.w3.org/TR/2001/REC-SVG-20010904/DTD/svg10.dtd">
<svg version="1.0" xmlns="http://www.w3.org/2000/svg"
 width="170.000000pt" height="170.000000pt" viewBox="0 0 170.000000 170.000000"
 preserveAspectRatio="xMidYMid meet">
<metadata>
Created by potrace 1.14, written by Peter Selinger 2001-2017
</metadata>
<g transform="translate(0.000000,170.000000) scale(0.100000,-0.100000)"
fill="#000000" stroke="none">
<path d="M515 1685 c-113 -30 -210 -80 -293 -151 -53 -45 -143 -171 -173 -243
-46 -110 -51 -161 -47 -476 l3 -290 31 -80 c72 -187 201 -324 373 -396 110
-46 161 -51 476 -47 l290 3 81 32 c179 68 292 169 379 340 60 117 67 171 63
504 l-3 294 -31 80 c-86 223 -258 379 -478 430 -84 20 -597 20 -671 0z m-371
-341 c13 -5 16 -22 16 -80 l0 -74 130 0 130 0 0 -25 0 -25 -130 0 -130 0 0
-111 0 -110 -32 3 -33 3 -1 200 c-1 110 1 206 4 213 5 13 21 15 46 6z m526
-224 l0 -220 -30 0 -30 0 0 220 0 220 30 0 30 0 0 -220z m-250 155 l0 -25
-100 0 -100 0 0 25 0 25 100 0 100 0 0 -25z m960 0 c0 -24 -3 -25 -60 -25
l-60 0 0 -160 0 -160 -30 0 -30 0 0 185 0 185 90 0 c89 0 90 0 90 -25z m-280
-40 c39 -20 50 -43 50 -109 0 -105 -31 -138 -129 -137 l-61 0 0 -45 c0 -42 -1
-44 -30 -44 l-30 0 0 116 0 115 27 -3 c19 -2 29 -10 31 -23 9 -61 11 -65 47
-65 18 0 45 4 59 10 24 9 26 15 26 64 0 32 -5 58 -13 64 -8 7 -67 13 -138 14
l-124 3 -3 28 -3 27 131 0 c97 0 139 -4 160 -15z m-830 -235 l0 -80 -30 0 -30
0 0 80 0 80 30 0 30 0 0 -80z m1240 -150 l0 -30 -155 0 -155 0 0 24 c0 28 2
28 208 34 l102 3 0 -31z m-1080 -5 l0 -25 -100 0 -100 0 0 25 0 25 100 0 100
0 0 -25z m390 -260 l0 -265 -31 0 -30 0 1 203 c1 111 1 217 1 235 l-1 32 -59
0 c-75 0 -91 6 -91 36 0 24 1 24 105 24 l105 0 0 -265z m150 92 c0 -123 4
-190 15 -232 18 -66 27 -80 70 -107 17 -10 23 -18 15 -18 -27 0 -93 44 -124
83 l-31 39 -3 204 -3 204 30 0 31 0 0 -173z m140 38 l0 -135 -25 0 -25 0 0
135 0 135 25 0 25 0 0 -135z m360 -170 l0 -225 -30 0 -30 0 0 225 0 225 30 0
30 0 0 -225z m-192 203 c14 -14 15 -160 3 -247 -11 -75 -50 -111 -122 -111
-84 0 -129 35 -129 99 0 28 3 31 30 31 21 0 30 -5 30 -17 0 -48 65 -68 110
-33 24 18 25 23 28 154 3 121 5 136 21 136 9 0 22 -5 29 -12z m-638 -18 c0
-19 -7 -20 -100 -20 -93 0 -100 1 -100 20 0 19 7 20 100 20 93 0 100 -1 100
-20z m-219 -99 c60 -60 26 -171 -58 -187 -81 -15 -145 55 -123 136 22 80 123
109 181 51z m139 -121 l0 -130 -25 0 -25 0 0 130 0 130 25 0 25 0 0 -130z"/>
<path d="M318 599 c-21 -12 -24 -69 -6 -87 7 -7 24 -12 40 -12 45 0 65 61 30
93 -21 19 -39 21 -64 6z"/>
</g>
</svg>
